# Blender v3.0.0 OBJ File: ''
# www.blender.org
mtllib steve.mtl
o Cube_Cube.001
v -0.487938 -1.177716 -0.403758
v -0.488247 1.156889 -0.442971
v 0.467032 -1.177715 -0.411288
v 0.466722 1.156889 -0.450501
v -0.480417 -1.161695 0.549974
v -0.480727 1.172909 0.510761
v 0.474552 -1.161695 0.542444
v 0.474243 1.172909 0.503231
vt 0.200000 0.200000
vt 0.000000 0.000000
vt 0.200000 0.000000
vt 0.200000 0.400000
vt 0.000000 0.200000
vt 0.200000 0.200000
vt 0.400000 0.200000
vt 0.200000 0.000000
vt 0.400000 0.000000
vt 0.400000 0.400000
vt 0.200000 0.200000
vt 0.400000 0.200000
vt 0.200000 0.400000
vt 0.000000 0.600000
vt 0.000000 0.400000
vt 0.600000 0.000000
vt 0.400000 0.200000
vt 0.400000 0.000000
vt 0.000000 0.200000
vt 0.000000 0.400000
vt 0.200000 0.200000
vt 0.200000 0.400000
vt 0.200000 0.600000
vt 0.600000 0.200000
vn -0.0079 -0.0168 -0.9998
vn 1.0000 0.0000 -0.0079
vn 0.0079 0.0168 0.9998
vn -1.0000 -0.0000 0.0079
vn 0.0001 -0.9999 0.0168
vn -0.0001 0.9999 -0.0168
usemtl Material.001
s off
f 2/1/1 3/2/1 1/3/1
f 4/4/2 7/5/2 3/6/2
f 8/7/3 5/8/3 7/9/3
f 6/10/4 1/11/4 5/12/4
f 7/13/5 1/14/5 3/15/5
f 4/16/6 6/17/6 8/18/6
f 2/1/1 4/19/1 3/2/1
f 4/4/2 8/20/2 7/5/2
f 8/7/3 6/21/3 5/8/3
f 6/10/4 2/22/4 1/11/4
f 7/13/5 5/23/5 1/14/5
f 4/16/6 2/24/6 6/17/6
o Cube.001_Cube.002
v -1.013482 -0.531973 -0.320144
v -1.013482 0.533861 -0.320144
v -0.458217 -0.531973 -0.324523
v -0.458217 0.533861 -0.324523
v -1.007524 -0.531973 0.435445
v -1.007524 0.533861 0.435444
v -0.452259 -0.531973 0.431066
v -0.452259 0.533861 0.431066
vt 0.600000 0.400000
vt 0.400000 0.200000
vt 0.600000 0.200000
vt 0.400000 0.600000
vt 0.200348 0.399522
vt 0.400000 0.400000
vt 0.600000 0.600000
vt 0.400000 0.400000
vt 0.600000 0.400000
vt 0.200000 0.800000
vt 0.000000 0.600000
vt 0.200000 0.600000
vt 0.800000 0.000000
vt 0.600000 0.000000
vt 0.200000 0.600000
vt 0.400000 0.400000
vt 0.400000 0.600000
vt 0.000000 0.800000
vt 0.800000 0.200000
vt 0.400000 0.800000
vn -0.0079 -0.0000 -1.0000
vn 1.0000 -0.0000 -0.0079
vn 0.0079 0.0000 1.0000
vn -1.0000 0.0000 0.0079
vn 0.0000 -1.0000 0.0000
vn 0.0000 1.0000 -0.0000
usemtl Material.001
s off
f 10/25/7 11/26/7 9/27/7
f 12/28/8 15/29/8 11/30/8
f 16/31/9 13/32/9 15/33/9
f 14/34/10 9/35/10 13/36/10
f 15/37/11 9/27/11 11/38/11
f 12/28/12 14/34/12 16/39/12
f 10/25/7 12/40/7 11/26/7
f 12/28/8 16/39/8 15/29/8
f 16/31/9 14/41/9 13/32/9
f 14/34/10 10/42/10 9/35/10
f 15/37/11 13/43/11 9/27/11
f 12/28/12 10/44/12 14/34/12
o Cube.002_Cube.003
v 0.459177 -0.529043 -0.322753
v 0.459036 0.536642 -0.340652
v 1.014443 -0.529043 -0.327131
v 1.014302 0.536642 -0.345031
v 0.465134 -0.516352 0.432730
v 0.464993 0.549332 0.414830
v 1.020400 -0.516352 0.428351
v 1.020259 0.549332 0.410452
vt 0.800000 0.400000
vt 0.600000 0.200000
vt 0.800000 0.200000
vt 0.600000 0.800000
vt 0.400000 0.600000
vt 0.600000 0.600000
vt 0.800000 0.600000
vt 0.600000 0.400000
vt 0.800000 0.400000
vt 0.800000 0.800000
vt 0.600000 0.600000
vt 0.800000 0.600000
vt 0.200000 0.800000
vt 0.000000 1.000000
vt 0.000000 0.800000
vt 1.000000 0.000000
vt 0.800000 0.200000
vt 0.800000 0.000000
vt 0.600000 0.400000
vt 0.400000 0.800000
vt 0.600000 0.600000
vt 0.600000 0.800000
vt 0.200000 1.000000
vt 1.000000 0.200000
vn -0.0079 -0.0168 -0.9998
vn 1.0000 0.0000 -0.0079
vn 0.0079 0.0168 0.9998
vn -1.0000 0.0000 0.0079
vn 0.0001 -0.9999 0.0168
vn -0.0001 0.9999 -0.0168
usemtl Material.001
s off
f 18/45/13 19/46/13 17/47/13
f 20/48/14 23/49/14 19/50/14
f 24/51/15 21/52/15 23/53/15
f 22/54/16 17/55/16 21/56/16
f 23/57/17 17/58/17 19/59/17
f 20/60/18 22/61/18 24/62/18
f 18/45/13 20/63/13 19/46/13
f 20/48/14 24/64/14 23/49/14
f 24/51/15 22/65/15 21/52/15
f 22/54/16 18/66/16 17/55/16
f 23/57/17 21/67/17 17/58/17
f 20/60/18 18/68/18 22/61/18
